<svg id="Layer_1" data-name="Layer 1" xmlns="http://www.w3.org/2000/svg" viewBox="0 0 248.98 248.83"><title>base</title><path d="M545.73,173V421.87h-249V173h249ZM307.51,403.65a8.71,8.71,0,0,0,8.84,8.9,8.86,8.86,0,0,0,8.93-8.88,8.89,8.89,0,0,0-17.77,0ZM525.91,200a8.9,8.9,0,1,0-8.85-8.81A8.94,8.94,0,0,0,525.91,200Zm10.35,202.15a8.9,8.9,0,0,0-8.72-9,9,9,0,0,0-9.07,8.87,8.9,8.9,0,0,0,17.79.09ZM323.86,192.54a9,9,0,0,0-8.95-8.89,8.89,8.89,0,1,0,8.95,8.89Z" transform="translate(-296.75 -173.04)"/></svg>